<?xml version="1.0" encoding="UTF-8" standalone="no"?>
<!-- Created with Inkscape (http://www.inkscape.org/) -->

<svg
   xmlns:dc="http://purl.org/dc/elements/1.1/"
   xmlns:cc="http://creativecommons.org/ns#"
   xmlns:rdf="http://www.w3.org/1999/02/22-rdf-syntax-ns#"
   xmlns:svg="http://www.w3.org/2000/svg"
   xmlns="http://www.w3.org/2000/svg"
   xmlns:sodipodi="http://sodipodi.sourceforge.net/DTD/sodipodi-0.dtd"
   xmlns:inkscape="http://www.inkscape.org/namespaces/inkscape"
   width="226.77165"
   height="226.77165"
   id="svg2"
   version="1.1"
   inkscape:version="0.92.1 unknown"
   sodipodi:docname="sample1.svg"
   viewBox="0 0 212.59842 212.59842">
  <sodipodi:namedview
     id="base"
     pagecolor="#ffffff"
     bordercolor="#666666"
     borderopacity="1.0"
     inkscape:pageopacity="0.0"
     inkscape:pageshadow="2"
     inkscape:zoom="2.953926"
     inkscape:cx="107.2511"
     inkscape:cy="106.29921"
     inkscape:document-units="mm"
     inkscape:current-layer="layer1"
     showgrid="false"
     units="mm"
     inkscape:window-width="1123"
     inkscape:window-height="798"
     inkscape:window-x="134"
     inkscape:window-y="0"
     inkscape:window-maximized="0" />
  <title
     id="title4272">sample1</title>
  <defs
     id="defs4" />
  <metadata
     id="metadata7">
    <rdf:RDF>
      <cc:Work
         rdf:about="">
        <dc:format>image/svg+xml</dc:format>
        <dc:type
           rdf:resource="http://purl.org/dc/dcmitype/StillImage" />
        <dc:title>sample1</dc:title>
        <dc:date>10 June 2012</dc:date>
        <dc:creator>
          <cc:Agent>
            <dc:title>dan.newman@mtbaldy.us</dc:title>
          </cc:Agent>
        </dc:creator>
        <cc:license
           rdf:resource="http://creativecommons.org/licenses/by-nc/3.0/" />
        <dc:rights>
          <cc:Agent>
            <dc:title>dan.newman@mtbaldy.us</dc:title>
          </cc:Agent>
        </dc:rights>
        <dc:contributor>
          <cc:Agent>
            <dc:title>Dan Newman</dc:title>
          </cc:Agent>
        </dc:contributor>
      </cc:Work>
      <cc:License
         rdf:about="http://creativecommons.org/licenses/by-nc/3.0/">
        <cc:permits
           rdf:resource="http://creativecommons.org/ns#Reproduction" />
        <cc:permits
           rdf:resource="http://creativecommons.org/ns#Distribution" />
        <cc:requires
           rdf:resource="http://creativecommons.org/ns#Notice" />
        <cc:requires
           rdf:resource="http://creativecommons.org/ns#Attribution" />
        <cc:prohibits
           rdf:resource="http://creativecommons.org/ns#CommercialUse" />
        <cc:permits
           rdf:resource="http://creativecommons.org/ns#DerivativeWorks" />
      </cc:License>
    </rdf:RDF>
  </metadata>
  <g
     inkscape:label="Layer 1"
     inkscape:groupmode="layer"
     id="layer1"
     transform="translate(0,-839.76377)">
    <g
       transform="translate(0,839.76377)"
       style="font-style:normal;font-variant:normal;font-weight:normal;font-stretch:normal;font-size:18px;line-height:125%;font-family:Sans;-inkscape-font-specification:Sans;text-align:start;letter-spacing:0px;word-spacing:0px;writing-mode:lr-tb;text-anchor:start;fill:#000000;fill-opacity:1;stroke:none"
       id="text2989" />
    <g
       style="font-style:normal;font-variant:normal;font-weight:normal;font-stretch:normal;font-size:18px;line-height:125%;font-family:Sans;-inkscape-font-specification:Sans;text-align:start;letter-spacing:0px;word-spacing:0px;writing-mode:lr-tb;text-anchor:start;fill:#000000;fill-opacity:1;stroke:none"
       id="text3836"
       transform="matrix(0.4286875,0,0,0.4286875,57.946812,546.84184)">
      <path
         d="m 29.15229,1013.7831 c -2.188825,1.7016 -2.582091,0.1003 -3.249193,0.7711 -0.480933,0.4835 0.189637,1.0884 0.361221,1.2591 l 1.778239,1.7686 c 0.171584,0.1706 0.780099,0.8379 1.261032,0.3543 0.667101,-0.6707 -0.936252,-1.0553 0.753419,-3.2533 l 2.668407,-2.683 1.686289,-3.4425 -0.0312,-0.031 -5.228217,5.2567 m 5.728572,7.1248 c -0.574017,0.5771 -0.651504,0.6863 -1.368107,0.3148 -0.264838,-0.1392 -0.544851,-0.1385 -0.762047,0.08 -0.449906,0.4524 0.03382,0.9955 0.09621,1.0576 l 4.4144,4.3904 c 0.06239,0.062 0.608176,0.5429 1.058081,0.091 0.217196,-0.2184 0.216435,-0.4984 0.07571,-0.7625 -0.375296,-0.7145 -0.266613,-0.7926 0.307404,-1.3698 l 8.129334,-8.1736 c 0.574018,-0.5772 0.651504,-0.6863 1.368108,-0.3149 0.264837,0.1393 0.544851,0.1385 0.762047,-0.08 0.449905,-0.4524 -0.03382,-0.9956 -0.09621,-1.0576 l -4.118027,-4.0957 -9.866902,9.9207 m 1.633471,-17.1476 c -0.372336,0.3744 0.0178,0.8244 0.189467,1.0262 0.249661,0.2793 0.125888,0.5286 0.03356,0.9022 -0.07689,0.3269 -0.23161,0.6384 -0.386327,0.95 l -6.343059,12.8979 0.452359,0.4499 8.574469,-4.6591 2.823547,-2.8389 -0.0312,-0.031 -3.27726,1.8913 -0.0312,-0.031 3.093748,-6.4487 -3.962041,-3.9406 c -0.187183,-0.1861 -0.655141,-0.6516 -1.136074,-0.168"
         style="font-style:normal;font-variant:normal;font-weight:bold;font-stretch:normal;font-size:22px;line-height:125%;font-family:'Stencil Std';-inkscape-font-specification:'Stencil Std Bold';text-align:start;writing-mode:lr-tb;text-anchor:start;fill:#000000;fill-opacity:1;stroke:none"
         id="path3851"
         inkscape:connector-curvature="0" />
      <path
         d="m 50.318423,1019.7792 -0.05374,-0.038 -7.757178,6.3303 c -1.247273,1.029 -2.024689,1.0961 -2.541346,1.0249 -0.534568,-0.084 -0.826292,-0.3191 -1.132868,0.1108 -0.370446,0.5194 0.261597,0.9972 0.619829,1.2527 l 2.059832,1.469 c 0.358231,0.2555 0.918628,0.6822 1.2763,0.1806 0.25548,-0.3582 0.08136,-0.6445 -0.115805,-0.9743 -0.417384,-0.703 -0.450987,-1.1863 0.614811,-2.0745 l 6.052399,-4.925 0.977761,-2.3562 m -3.531564,10.7491 c -0.336981,0.8135 -0.498047,0.8878 -1.155357,0.8243 -0.322269,-0.041 -0.493609,-0.028 -0.697993,0.2588 -0.332123,0.4657 0.161764,0.872 0.519996,1.1275 l 4.459984,3.1807 c 0.34032,0.2427 0.972363,0.7205 1.317261,0.2369 0.229932,-0.3224 0.122323,-0.5883 -0.05179,-0.8746 -0.348236,-0.5726 -0.123442,-0.9257 0.126761,-1.5039 l 5.386433,-13.2362 -3.95846,-2.8231 -0.922647,0.8012 -3.83704,9.2071 -2.185213,-1.5585 -0.991654,0.8601 2.615091,1.865 -0.625367,1.6347"
         style="font-style:normal;font-variant:normal;font-weight:bold;font-stretch:normal;font-size:22px;line-height:125%;font-family:'Stencil Std';-inkscape-font-specification:'Stencil Std Bold';text-align:start;writing-mode:lr-tb;text-anchor:start;fill:#000000;fill-opacity:1;stroke:none"
         id="path3853"
         inkscape:connector-curvature="0" />
      <path
         d="m 67.509373,1031.9916 0.628934,-0.3261 c 1.385636,-0.7116 2.210899,-1.2349 3.824821,-1.0713 0.423152,0.038 0.866005,0.086 1.091262,-0.3665 0.313402,-0.6304 -0.248099,-0.9342 -0.720893,-1.1692 l -3.368663,-1.6748 c -0.413695,-0.2056 -0.955496,-0.4995 -1.259104,0.1111 -0.195875,0.394 0.06045,0.6197 0.307086,0.9143 0.374857,0.4321 0.513541,0.845 0.249108,1.3769 -0.235051,0.4728 -0.667325,0.7493 -1.129203,0.9864 l -3.901152,2.1144 c -0.402892,0.2174 -0.746909,0.3658 -0.952579,0.7795 -0.205669,0.4137 -0.273441,0.8959 -0.341324,1.329 l -0.60026,4.2713 c -0.0095,0.1673 -0.05786,0.5118 -0.136215,0.6694 -0.215464,0.4334 -0.964393,-0.086 -1.287588,0.5637 -0.303607,0.6107 0.287387,0.9045 0.740481,1.1298 l 4.944646,2.4582 c 0.393996,0.1959 1.024502,0.5585 1.308521,-0.013 0.186082,-0.3743 0.06755,-0.5806 -0.159393,-0.8654 -0.345363,-0.442 -0.237968,-0.8063 -0.199803,-1.3278 l 0.961318,-9.8901 m -3.226805,-4.1839 c 0.36237,-0.7289 0.401434,-0.8569 1.198657,-0.7308 0.295273,0.048 0.560715,-0.041 0.697828,-0.3165 0.28402,-0.5713 -0.346485,-0.9339 -0.425284,-0.973 l -5.575039,-2.7717 c -0.0788,-0.039 -0.74848,-0.323 -1.0325,0.2483 -0.137113,0.2758 -0.04796,0.5413 0.168963,0.7474 0.58176,0.5595 0.503297,0.6679 0.140927,1.3968 l -5.131949,10.3227 c -0.362371,0.7289 -0.401435,0.8568 -1.198658,0.7308 -0.295272,-0.049 -0.560715,0.041 -0.697828,0.3164 -0.28402,0.5713 0.346485,0.9339 0.425284,0.9731 l 5.575039,2.7716 c 0.0788,0.039 0.74848,0.323 1.0325,-0.2483 0.137113,-0.2758 0.04796,-0.5413 -0.168962,-0.7474 -0.581761,-0.5595 -0.503298,-0.6679 -0.140928,-1.3968 l 5.13195,-10.3226"
         style="font-style:normal;font-variant:normal;font-weight:bold;font-stretch:normal;font-size:22px;line-height:125%;font-family:'Stencil Std';-inkscape-font-specification:'Stencil Std Bold';text-align:start;writing-mode:lr-tb;text-anchor:start;fill:#000000;fill-opacity:1;stroke:none"
         id="path3855"
         inkscape:connector-curvature="0" />
      <path
         d="m 72.855815,1029.989 c -0.0933,0.2935 0.03542,0.5422 0.281327,0.7127 0.660517,0.4638 0.599566,0.583 0.352991,1.3587 l -3.492031,10.9864 c -0.246574,0.7758 -0.265594,0.9082 -1.072722,0.9056 -0.299219,0 -0.547895,0.126 -0.641193,0.4195 -0.193261,0.608 0.485301,0.8699 0.569166,0.8965 l 5.535122,1.7594 4.984807,-15.6829 -5.535121,-1.7593 c -0.08387,-0.027 -0.789085,-0.2047 -0.982346,0.4034 m 7.074432,2.8719 c 1.75174,0.8799 2.494482,2.2472 2.499809,4.1187 0.0049,0.3478 0.04306,0.5908 0.399487,0.7041 0.628991,0.1999 0.776577,-0.1918 0.809898,-0.2966 l 1.352829,-4.2562 -4.675501,-1.4861 -0.386522,1.2161 m -4.598285,14.4667 4.822265,1.5328 1.332836,-4.1933 c 0.02666,-0.084 0.289481,-0.6928 -0.381443,-0.9061 -0.377394,-0.1199 -0.60982,0.1755 -0.856547,0.4434 -1.099225,1.4974 -2.765673,2.2373 -4.530589,1.9072 l -0.386522,1.216 m 2.345791,-7.3801 c 0.807281,0.5105 0.94574,1.4548 0.881198,2.3115 -0.0085,0.3898 0.01071,0.7652 0.451006,0.9052 0.649957,0.2066 0.785036,-0.5816 0.83835,-0.7493 l 1.439463,-4.5287 c 0.05331,-0.1678 0.398055,-0.8892 -0.251902,-1.0958 -0.440293,-0.14 -0.672719,0.1555 -0.890842,0.4786 -0.441935,0.7368 -1.100201,1.4278 -2.054093,1.3786 l -0.41318,1.2999"
         style="font-style:normal;font-variant:normal;font-weight:bold;font-stretch:normal;font-size:22px;line-height:125%;font-family:'Stencil Std';-inkscape-font-specification:'Stencil Std Bold';text-align:start;writing-mode:lr-tb;text-anchor:start;fill:#000000;fill-opacity:1;stroke:none"
         id="path3857"
         inkscape:connector-curvature="0" />
      <path
         d="m 95.102653,1037.592 1.271218,-1.6594 c 0.190946,-0.2865 0.373722,-0.5076 0.108947,-0.8732 -0.188347,-0.2674 -0.646834,-0.502 -0.996126,-0.5455 -0.349292,-0.044 -0.851358,0.071 -1.099626,0.284 -0.346485,0.2893 -0.223631,0.5485 -0.08712,0.876 l 0.802703,1.9181 m 0.485807,0.371 2.073921,0.2587 c 0.349292,0.044 0.630368,0.1009 0.815826,-0.3194 0.128178,-0.3166 0.100776,-0.8077 -0.03301,-1.157 -0.139238,-0.3056 -0.491336,-0.6821 -0.786072,-0.8075 -0.42572,-0.1418 -0.589389,0.1038 -0.799443,0.3658 l -1.271217,1.6594 m -1.17886,-0.1471 -0.805428,-1.8963 c -0.136514,-0.3274 -0.237539,-0.5839 -0.685048,-0.551 -0.338356,0.046 -0.750334,0.3276 -0.982218,0.5869 -0.212778,0.2838 -0.362745,0.775 -0.313554,1.0916 0.09834,0.4556 0.363035,0.4665 0.734157,0.5128 l 2.052091,0.256 m 0.41499,0.9386 -1.271217,1.6594 c -0.190947,0.2866 -0.370998,0.4858 -0.130778,0.8705 0.210178,0.2701 0.668665,0.5047 1.017957,0.5483 0.349292,0.043 0.851358,-0.071 1.099626,-0.2841 0.349209,-0.3112 0.22363,-0.5485 0.08712,-0.8759 l -0.802704,-1.9182 m -0.526744,-0.3983 -2.05209,-0.256 c -0.352016,-0.022 -0.611261,-0.076 -0.815826,0.3195 -0.150009,0.3138 -0.1035,0.8295 0.03574,1.1351 0.133791,0.3493 0.464059,0.723 0.783349,0.8294 0.42572,0.1418 0.586665,-0.082 0.81855,-0.3413 l 1.230279,-1.6867 m 1.178861,0.1471 0.82181,1.9427 c 0.139238,0.3056 0.240263,0.5621 0.687772,0.5292 0.313801,-0.027 0.747611,-0.3058 0.963111,-0.6114 0.210054,-0.262 0.360022,-0.7533 0.313554,-1.0916 -0.07923,-0.4311 -0.365758,-0.4447 -0.712326,-0.5101 l -2.073921,-0.2588"
         style="font-style:normal;font-variant:normal;font-weight:bold;font-stretch:normal;font-size:22px;line-height:125%;font-family:'Stencil Std';-inkscape-font-specification:'Stencil Std Bold';text-align:start;writing-mode:lr-tb;text-anchor:start;fill:#000000;fill-opacity:1;stroke:none"
         id="path3859"
         inkscape:connector-curvature="0" />
      <path
         d="m 112.71888,1037.8238 c -0.0305,-0.8134 -0.0574,-0.9445 0.70299,-1.2152 0.2825,-0.099 0.47295,-0.3039 0.46141,-0.6117 -0.0239,-0.6375 -0.75103,-0.6543 -0.83897,-0.651 l -6.22163,0.2331 c -0.0879,0 -0.81178,0.074 -0.78789,0.7121 0.0115,0.3077 0.21681,0.4982 0.50591,0.5754 0.77852,0.213 0.76148,0.3457 0.79196,1.1592 l 0.43174,11.5199 c 0.0305,0.8134 0.0574,0.9445 -0.70298,1.2152 -0.28251,0.099 -0.47295,0.3039 -0.46142,0.6117 0.0239,0.6375 0.75103,0.6543 0.83897,0.651 l 6.22163,-0.2332 c 0.0879,0 0.81179,-0.074 0.78789,-0.712 -0.0115,-0.3078 -0.21681,-0.4982 -0.5059,-0.5754 -0.77853,-0.213 -0.76149,-0.3458 -0.79197,-1.1592 l -0.43174,-11.5199"
         style="font-style:normal;font-variant:normal;font-weight:bold;font-stretch:normal;font-size:22px;line-height:125%;font-family:'Stencil Std';-inkscape-font-specification:'Stencil Std Bold';text-align:start;writing-mode:lr-tb;text-anchor:start;fill:#000000;fill-opacity:1;stroke:none"
         id="path3861"
         inkscape:connector-curvature="0" />
      <path
         d="m 117.44498,1048.0923 c 0.0949,2.7708 -1.43279,2.1504 -1.28064,3.0841 0.10969,0.6731 0.99287,0.4846 1.23172,0.4457 l 2.47535,-0.4034 c 0.23884,-0.039 1.13618,-0.1405 1.02649,-0.8137 -0.15215,-0.9336 -1.40382,0.1396 -2.19353,-2.5179 l -1.06858,-6.5576 -1.5698,-1.9732 -0.0434,0.01 1.42242,8.7289 m 9.10865,-7.4358 1.57334,1.9949 0.0434,-0.01 -0.85982,-5.2764 c -0.50599,-3.105 1.40899,-2.57 1.24622,-3.5689 -0.0991,-0.6079 -0.8227,-0.5346 -1.03983,-0.4992 l -2.95305,0.4812 c -0.21714,0.035 -0.92661,0.1956 -0.82754,0.8036 0.16277,0.9988 1.80883,-0.1165 2.31481,2.9886 l 0.50244,3.0833 m -6.20215,-6.1891 -5.58039,0.9094 c -0.45245,0.096 -1.10386,0.2022 -0.99771,0.8536 0.0778,0.4777 0.37428,0.5185 0.76464,0.5887 0.75547,0.122 0.91711,0.43 1.3636,0.9814 l 10.17987,12.4063 3.23533,-0.5273 -0.85628,-5.2546 -8.10906,-9.9575"
         style="font-style:normal;font-variant:normal;font-weight:bold;font-stretch:normal;font-size:22px;line-height:125%;font-family:'Stencil Std';-inkscape-font-specification:'Stencil Std Bold';text-align:start;writing-mode:lr-tb;text-anchor:start;fill:#000000;fill-opacity:1;stroke:none"
         id="path3863"
         inkscape:connector-curvature="0" />
      <path
         d="m 133.22606,1045.1634 c 0.5259,2.7221 -1.07983,2.3476 -0.78391,3.2461 0.21334,0.6478 1.05631,0.3238 1.28616,0.2481 l 2.38214,-0.7845 c 0.22985,-0.076 1.10035,-0.3161 0.88701,-0.9639 -0.29592,-0.8985 -1.36487,0.3569 -2.55944,-2.145 l -2.07834,-6.3105 -1.85837,-1.7042 -0.0418,0.014 2.76654,8.4002 m 7.83733,-8.7656 1.86525,1.7251 0.0418,-0.014 -1.67231,-5.0777 c -0.98411,-2.9881 0.99086,-2.7584 0.67429,-3.7196 -0.19269,-0.5851 -0.89602,-0.3998 -1.10498,-0.331 l -2.84184,0.9359 c -0.20896,0.069 -0.88476,0.3378 -0.69207,0.9228 0.31657,0.9613 1.76852,-0.3971 2.75264,2.591 l 0.97723,2.9672 m -7.09161,-5.1459 -5.37025,1.7687 c -0.43193,0.1654 -1.05881,0.3719 -0.85235,0.9987 0.1514,0.4598 0.45058,0.4539 0.8471,0.4623 0.76526,0 0.97297,0.2817 1.5,0.7567 l 11.9904,10.6666 3.11349,-1.0255 -1.66543,-5.0568 -9.56296,-8.5707"
         style="font-style:normal;font-variant:normal;font-weight:bold;font-stretch:normal;font-size:22px;line-height:125%;font-family:'Stencil Std';-inkscape-font-specification:'Stencil Std Bold';text-align:start;writing-mode:lr-tb;text-anchor:start;fill:#000000;fill-opacity:1;stroke:none"
         id="path3865"
         inkscape:connector-curvature="0" />
      <path
         d="m 146.59351,1025.7398 c -3.96691,2.4882 -4.20141,6.8288 -2.21545,10.7305 1.98595,3.9016 5.63351,6.2663 9.97965,4.5231 l -0.57883,-1.1371 c -1.09114,0.1357 -1.46896,-0.4126 -1.71845,-0.9027 l -5.16948,-10.1561 c -0.24949,-0.4901 -0.47046,-1.1182 0.28138,-1.9206 l -0.57882,-1.1371 m 8.64648,14.8046 c 3.96691,-2.4883 4.20141,-6.8289 2.21545,-10.7306 -1.98595,-3.9016 -5.63351,-6.2663 -9.97965,-4.5231 l 0.57883,1.1371 c 1.09114,-0.1357 1.46896,0.4126 1.71845,0.9027 l 5.16948,10.1561 c 0.24949,0.4901 0.47046,1.1182 -0.28138,1.9206 l 0.57882,1.1372"
         style="font-style:normal;font-variant:normal;font-weight:bold;font-stretch:normal;font-size:22px;line-height:125%;font-family:'Stencil Std';-inkscape-font-specification:'Stencil Std Bold';text-align:start;writing-mode:lr-tb;text-anchor:start;fill:#000000;fill-opacity:1;stroke:none"
         id="path3867"
         inkscape:connector-curvature="0" />
      <path
         d="m 167.44565,1027.6405 -7.68346,-6.2906 c -0.2047,-0.1793 -0.30354,-0.2446 -0.45401,-0.4615 -0.5141,-0.7411 0.49444,-0.9856 0.005,-1.6906 -0.4514,-0.6507 -1.24386,0.06 -1.65963,0.348 l -3.95883,2.7461 c -0.41577,0.2883 -1.18754,0.7969 -0.77375,1.3934 0.17555,0.2531 0.43301,0.3155 0.72517,0.2735 0.63854,-0.1216 0.62193,-0.03 1.13018,0.3941 l 11.53333,9.216 2.60307,-1.8056 -1.46749,-4.1228 m -0.59142,-1.6247 0.0361,-0.025 -2.38117,-6.6752 c -0.17994,-0.491 -0.32372,-1.0071 -0.35204,-1.5497 -0.0117,-0.6345 0.0883,-0.8377 0.40782,-1.3807 0.207,-0.3577 0.42246,-0.5875 0.1466,-0.9852 -0.40125,-0.5785 -1.01994,-0.042 -1.41763,0.2336 l -1.98846,1.3793 c -0.37961,0.2634 -1.03038,0.7148 -0.64167,1.2751 0.25078,0.3616 0.57909,0.2945 0.96163,0.1898 0.58285,-0.1633 1.01294,-0.01 1.36403,0.4997 0.21316,0.3073 0.25224,0.4408 0.36248,0.7927 l 1.70459,4.7348 1.79767,1.5108"
         style="font-style:normal;font-variant:normal;font-weight:bold;font-stretch:normal;font-size:22px;line-height:125%;font-family:'Stencil Std';-inkscape-font-specification:'Stencil Std Bold';text-align:start;writing-mode:lr-tb;text-anchor:start;fill:#000000;fill-opacity:1;stroke:none"
         id="path3869"
         inkscape:connector-curvature="0" />
      <path
         d="m 167.05953,1016.205 -0.0489,0.044 4.53422,8.9268 c 0.73997,1.4377 0.64004,2.2116 0.46048,2.7013 -0.19585,0.5044 -0.48763,0.7394 -0.13285,1.1305 0.42869,0.4725 1.03004,-0.043 1.35591,-0.339 l 1.87377,-1.7 c 0.32587,-0.2957 0.86205,-0.7524 0.44814,-1.2086 -0.29565,-0.3259 -0.61245,-0.2167 -0.97663,-0.094 -0.77571,0.2582 -1.25512,0.1881 -1.89615,-1.0423 l -3.52397,-6.962 -2.09404,-1.4568 m 9.75106,5.7385 c 0.72316,0.5024 0.76146,0.6756 0.55956,1.3043 -0.10834,0.3062 -0.13219,0.4764 0.10433,0.7371 0.38434,0.4236 0.88642,0.028 1.21229,-0.2681 l 4.05711,-3.6808 c 0.30958,-0.2809 0.91093,-0.7968 0.51181,-1.2367 -0.26609,-0.2933 -0.54879,-0.2447 -0.8656,-0.1355 -0.63361,0.2183 -0.93077,-0.077 -1.44243,-0.444 l -11.7865,-8.0802 -3.60089,3.2669 0.58643,1.072 8.17946,5.7088 -1.98782,1.8034 0.62927,1.152 2.37887,-2.1582 1.46411,0.959"
         style="font-style:normal;font-variant:normal;font-weight:bold;font-stretch:normal;font-size:22px;line-height:125%;font-family:'Stencil Std';-inkscape-font-specification:'Stencil Std Bold';text-align:start;writing-mode:lr-tb;text-anchor:start;fill:#000000;fill-opacity:1;stroke:none"
         id="path3871"
         inkscape:connector-curvature="0" />
      <path
         d="m 184.58428,1014.1904 c 0.62398,0.5228 0.73929,0.5907 0.43033,1.3363 -0.11621,0.2758 -0.0916,0.5547 0.14452,0.7525 0.48907,0.4097 0.98901,-0.1186 1.04552,-0.186 l 3.99818,-4.7726 c 0.0565,-0.067 0.489,-0.6523 -6e-5,-1.062 -0.2361,-0.1978 -0.51503,-0.1731 -0.76615,-0.01 -0.67998,0.4348 -0.76704,0.3332 -1.39102,-0.1895 l -10.72569,-8.9853 -3.46132,4.1317 10.72569,8.9853 m -4.59421,-16.30437 -2.03441,2.42847 0.97813,0.8194 c 1.35862,-0.3542 2.66946,0.3421 3.69042,0.9391 0.41339,0.2602 0.9225,0.5432 1.31808,0.071 0.42384,-0.5059 0.0446,-0.9097 -0.0228,-0.9662 l -3.92938,-3.29177 m -4.87226,13.79827 c 0.0675,0.057 0.53145,0.3591 0.95528,-0.1468 0.39558,-0.4722 0.0277,-0.9239 -0.30088,-1.2853 -0.76666,-0.9005 -1.68191,-2.0691 -1.57124,-3.4688 l -0.97813,-0.8194 -2.03441,2.4285 3.92938,3.2918"
         style="font-style:normal;font-variant:normal;font-weight:bold;font-stretch:normal;font-size:22px;line-height:125%;font-family:'Stencil Std';-inkscape-font-specification:'Stencil Std Bold';text-align:start;writing-mode:lr-tb;text-anchor:start;fill:#000000;fill-opacity:1;stroke:none"
         id="path3873"
         inkscape:connector-curvature="0" />
      <path
         d="m 179.75223,999.29764 c 0.26074,0.16393 0.53375,0.1017 0.76048,-0.0936 0.61471,-0.52306 0.71475,-0.43418 1.40387,-9.2e-4 l 9.75941,6.13588 c 0.68912,0.4332 0.81258,0.4849 0.60761,1.2655 -0.0777,0.289 -0.0155,0.562 0.24526,0.726 0.54012,0.3395 0.96379,-0.2517 1.01063,-0.3262 l 3.09134,-4.9169 -13.93137,-8.75884 -3.09135,4.91695 c -0.0468,0.0745 -0.396,0.71254 0.14412,1.05212 m 4.5544,-6.12803 c 1.2912,-1.47505 2.80101,-1.85115 4.61407,-1.38691 0.33792,0.0825 0.58271,0.10649 0.78178,-0.21013 0.35129,-0.55875 0.009,-0.79985 -0.084,-0.8584 l -3.78084,-2.37706 -2.61125,4.15334 1.08024,0.67916 m 12.85114,8.0797 2.69321,-4.28376 -3.72496,-2.34193 c -0.0745,-0.0468 -0.59812,-0.454 -0.97283,0.14199 -0.21077,0.33525 0.017,0.63435 0.21437,0.94037 1.17383,1.43964 1.4722,3.23841 0.70996,4.86413 l 1.08025,0.6792 m -6.55595,-4.12185 c 0.69668,-0.65343 1.64553,-0.55063 2.45866,-0.27329 0.37517,0.10594 0.74343,0.18155 0.98933,-0.20957 0.363,-0.57737 -0.36604,-0.90579 -0.51504,-0.99947 l -4.02296,-2.52928 c -0.149,-0.0937 -0.76095,-0.60835 -1.12395,-0.031 -0.2459,0.39112 -0.0182,0.69022 0.23991,0.98241 0.60236,0.61259 1.10625,1.42314 0.81931,2.33419 l 1.15474,0.72599"
         style="font-style:normal;font-variant:normal;font-weight:bold;font-stretch:normal;font-size:22px;line-height:125%;font-family:'Stencil Std';-inkscape-font-specification:'Stencil Std Bold';text-align:start;writing-mode:lr-tb;text-anchor:start;fill:#000000;fill-opacity:1;stroke:none"
         id="path3875"
         inkscape:connector-curvature="0" />
    </g>
    <g
       style="font-style:normal;font-variant:normal;font-weight:normal;font-stretch:normal;font-size:18px;line-height:125%;font-family:Sans;-inkscape-font-specification:Sans;text-align:start;letter-spacing:0px;word-spacing:0px;writing-mode:lr-tb;text-anchor:start;fill:#000000;fill-opacity:1;stroke:none"
       id="text3879"
       transform="matrix(0.4286875,0,0,0.4286875,59.482662,529.79979)">
      <path
         d="m 4.3643688,899.68794 c 0.6194387,-1.00341 1.5267873,-0.83157 2.4373765,-0.44308 l 3.0555356,1.3036 c 0.9915301,0.42303 1.7952801,0.8377 1.5085141,2.12654 l 1.173649,0.50073 c 0.820148,-1.92236 1.101252,-3.14187 0.960656,-4.32603 -0.251502,-1.87727 -1.336675,-3.03388 -3.036441,-3.75907 -1.6997669,-0.72518 -3.2856635,-0.70814 -4.8148695,0.40941 -0.9521109,0.71797 -1.6379222,1.76482 -2.4580702,3.68717 l 1.1736495,0.50073 m 9.1924112,10.8582 c 0.748707,0.31943 0.878753,0.35099 0.799182,1.15419 -0.03129,0.29759 0.07313,0.55741 0.356425,0.67827 0.586824,0.25036 0.912189,-0.40013 0.946721,-0.48108 l 2.44318,-5.7266 c 0.03453,-0.0809 0.278956,-0.76597 -0.307869,-1.01633 -0.283294,-0.12086 -0.543111,-0.0164 -0.736283,0.21208 -0.524748,0.61327 -0.637528,0.54124 -1.386235,0.22181 L 2.8022278,900.0978 0.52307737,905.43993 c -0.0345325,0.0809 -0.27895512,0.76598 0.30786902,1.01634 0.28329441,0.12086 0.54311121,0.0164 0.73628321,-0.21209 0.5247483,-0.61327 0.6375284,-0.54123 1.3862351,-0.22181 l 10.6033153,4.52377"
         style="font-style:normal;font-variant:normal;font-weight:bold;font-stretch:normal;font-size:22px;line-height:125%;font-family:'Stencil Std';-inkscape-font-specification:'Stencil Std Bold';text-align:start;writing-mode:lr-tb;text-anchor:start"
         id="path3888"
         inkscape:connector-curvature="0" />
      <path
         d="m 11.861559,888.84991 -0.03466,0.0562 6.832628,7.31859 c 1.109759,1.17601 1.228429,1.94724 1.191752,2.46749 -0.04823,0.53897 -0.263359,0.8457 0.185972,1.12298 0.542943,0.33505 0.977587,-0.3274 1.208654,-0.70184 l 1.328638,-2.15305 c 0.231067,-0.37444 0.619497,-0.962 0.09528,-1.28549 -0.374443,-0.23107 -0.648523,-0.0383 -0.964432,0.1804 -0.673647,0.46325 -1.153672,0.52895 -2.11087,-0.47535 l -5.316965,-5.71114 -2.415993,-0.81876 m 10.960251,2.80822 c 0.834144,0.28208 0.918987,0.43784 0.899432,1.09792 -0.01914,0.32426 0.0052,0.49436 0.304706,0.67921 0.486776,0.30039 0.859269,-0.21944 1.090336,-0.59389 l 2.87679,-4.66182 c 0.219513,-0.35572 0.654157,-1.01816 0.148659,-1.33011 -0.336999,-0.20796 -0.595142,-0.0829 -0.869222,0.1099 -0.54816,0.38558 -0.915435,0.18479 -1.508976,-0.0264 l -13.565416,-4.4934 -2.5532954,4.1376 0.8608034,0.86727 9.442089,3.21565 -1.409511,2.2841 0.924139,0.93221 1.686792,-2.73344 1.672674,0.51517"
         style="font-style:normal;font-variant:normal;font-weight:bold;font-stretch:normal;font-size:22px;line-height:125%;font-family:'Stencil Std';-inkscape-font-specification:'Stencil Std Bold';text-align:start;writing-mode:lr-tb;text-anchor:start"
         id="path3890"
         inkscape:connector-curvature="0" />
      <path
         d="m 20.18285,871.16663 c -2.001767,2.54239 -1.982211,5.72557 0.573299,7.88235 2.639572,2.22772 5.258046,1.06944 7.936966,-0.2969 1.034151,-0.50903 2.521291,-1.38424 3.552104,-0.45669 0.896312,0.81404 0.684427,1.81552 0.255528,2.83537 l 0.97513,0.82298 c 2.049581,-2.53083 2.181934,-6.13278 -0.424013,-8.33212 -1.546756,-1.30542 -3.694717,-1.96672 -7.349481,0.0442 -2.461906,1.34799 -3.349399,1.37625 -4.173215,0.68097 -0.689315,-0.58176 -0.691819,-1.53387 -0.371189,-2.35721 L 20.18285,871.1666 m 4.516739,-3.81682 c -0.1345,-0.11351 -0.67775,-0.62958 -1.117619,-0.10839 -0.368922,0.43713 0.264709,0.91432 -0.104214,1.35145 -0.156082,0.18494 -1.745647,0.77219 -2.656386,1.81719 l 0.975129,0.82298 c 1.392581,-1.07016 3.550078,-1.03415 4.95029,-0.16908 0.37882,0.23335 0.825963,0.35163 1.166507,-0.0519 0.41149,-0.48756 0.04793,-0.90955 -0.338756,-1.2359 l -2.874951,-2.42638 m 4.143411,18.5243 c 0.08406,0.071 0.706128,0.59595 1.145997,0.0748 0.354733,-0.42031 -0.242649,-0.83812 0.211409,-1.37613 0.510815,-0.60525 1.368855,-0.42806 2.636951,-1.86238 l -0.97513,-0.82298 c -1.551286,1.2241 -4.010337,0.76086 -5.553993,-0.13891 -0.328381,-0.19078 -0.796034,-0.18243 -1.07982,0.15382 -0.397301,0.47075 0.01669,0.9353 0.369758,1.23328 l 3.244828,2.73854"
         style="font-style:normal;font-variant:normal;font-weight:bold;font-stretch:normal;font-size:22px;line-height:125%;font-family:'Stencil Std';-inkscape-font-specification:'Stencil Std Bold';text-align:start;writing-mode:lr-tb;text-anchor:start"
         id="path3892"
         inkscape:connector-curvature="0" />
      <path
         d="m 31.453961,859.4965 c -2.338127,2.23696 -2.764605,5.3915 -0.536367,7.88495 2.301536,2.57547 5.05643,1.79535 7.900316,0.81768 1.095252,-0.35916 2.690316,-1.01745 3.581053,0.0453 0.773462,0.93155 0.423396,1.89348 -0.144116,2.8432 l 0.85025,0.95145 c 2.38385,-2.21882 3.019392,-5.76672 0.747176,-8.30938 -1.348671,-1.50919 -3.382837,-2.46481 -7.283232,-0.98558 -2.62644,0.98988 -3.509142,0.89356 -4.227456,0.0897 -0.601038,-0.67257 -0.470163,-1.61565 -0.03738,-2.38597 l -0.850249,-0.95144 m 5.006805,-3.14657 c -0.117275,-0.13124 -0.58289,-0.7183 -1.091421,-0.26386 -0.426511,0.38115 0.134038,0.94238 -0.292472,1.32353 -0.180447,0.16125 -1.836594,0.52008 -2.884721,1.42722 l 0.85025,0.95145 c 1.528742,-0.86457 3.659929,-0.52673 4.925176,0.52593 0.342402,0.2841 0.768571,0.46385 1.162273,0.11202 0.475723,-0.42512 0.174853,-0.89387 -0.162314,-1.27117 l -2.506771,-2.80512 m 1.508036,18.92197 c 0.0733,0.082 0.615699,0.68898 1.12423,0.23453 0.410106,-0.36648 -0.122868,-0.86385 0.402068,-1.33295 0.590553,-0.52774 1.415317,-0.23212 2.871805,-1.47469 l -0.850249,-0.95144 c -1.707444,0.99475 -4.077374,0.19166 -5.47979,-0.91545 -0.298424,-0.23489 -0.762636,-0.29212 -1.090721,10e-4 -0.459318,0.41047 -0.11447,0.92843 0.193378,1.27292 l 2.829279,3.16602"
         style="font-style:normal;font-variant:normal;font-weight:bold;font-stretch:normal;font-size:22px;line-height:125%;font-family:'Stencil Std';-inkscape-font-specification:'Stencil Std Bold';text-align:start;writing-mode:lr-tb;text-anchor:start"
         id="path3894"
         inkscape:connector-curvature="0" />
      <path
         d="m 46.412067,851.39038 c -0.466207,-0.66726 -0.559842,-0.76287 -0.06724,-1.40225 0.184044,-0.23594 0.232951,-0.51165 0.05655,-0.76413 -0.365406,-0.523 -0.985737,-0.14326 -1.057874,-0.0929 l -5.103699,3.56586 c -0.07214,0.0504 -0.642067,0.50228 -0.276661,1.02527 0.176402,0.25248 0.452113,0.30138 0.736959,0.20972 0.769801,-0.24263 0.827369,-0.12182 1.293576,0.54544 l 6.602507,9.44996 c 0.466207,0.66727 0.559843,0.76287 0.06725,1.40226 -0.184044,0.23594 -0.232951,0.51165 -0.05655,0.76413 0.365405,0.52299 0.985737,0.14325 1.057874,0.0928 l 5.103698,-3.56586 c 0.07214,-0.0504 0.642067,-0.50227 0.276662,-1.02527 -0.176403,-0.25248 -0.452114,-0.30138 -0.73696,-0.20972 -0.769801,0.24263 -0.827369,0.12183 -1.293576,-0.54544 l -6.602507,-9.44996"
         style="font-style:normal;font-variant:normal;font-weight:bold;font-stretch:normal;font-size:22px;line-height:125%;font-family:'Stencil Std';-inkscape-font-specification:'Stencil Std Bold';text-align:start;writing-mode:lr-tb;text-anchor:start"
         id="path3896"
         inkscape:connector-curvature="0" />
      <path
         d="m 63.09352,853.01219 -6.88382,-7.15677 c -0.182006,-0.2023 -0.272419,-0.27886 -0.396119,-0.51209 -0.422641,-0.79685 0.607761,-0.92002 0.205736,-1.678 -0.3711,-0.69968 -1.242154,-0.0883 -1.68917,0.14883 l -4.256371,2.25752 c -0.447016,0.2371 -1.273615,0.65061 -0.93344,1.29198 0.144317,0.2721 0.392576,0.36455 0.687652,0.35746 0.648457,-0.0451 0.621077,0.0441 1.075502,0.5253 l 10.359876,10.51782 2.79871,-1.48441 -0.968556,-4.26764 m -0.394724,-1.68327 0.03887,-0.0206 -1.573313,-6.91034 c -0.120479,-0.50887 -0.202087,-1.03835 -0.1659,-1.5805 0.06357,-0.63139 0.186945,-0.82134 0.568567,-1.32258 0.247937,-0.33073 0.489109,-0.53335 0.262325,-0.96093 -0.329866,-0.62194 -1.007747,-0.16279 -1.435327,0.064 l -2.137903,1.13391 c -0.408145,0.21648 -1.107823,0.58758 -0.788265,1.19008 0.206167,0.38871 0.540114,0.361 0.932367,0.30238 0.598098,-0.0931 1.006566,0.1136 1.295199,0.65779 0.175242,0.33041 0.198221,0.46764 0.265977,0.83015 l 1.13145,4.90343 1.605952,1.71322"
         style="font-style:normal;font-variant:normal;font-weight:bold;font-stretch:normal;font-size:22px;line-height:125%;font-family:'Stencil Std';-inkscape-font-specification:'Stencil Std Bold';text-align:start;writing-mode:lr-tb;text-anchor:start"
         id="path3898"
         inkscape:connector-curvature="0" />
      <path
         d="m 64.517029,839.50834 c 0.103385,0.29013 0.35636,0.41018 0.655304,0.39707 0.806556,-0.0305 0.830142,0.10123 1.103373,0.868 l 3.869552,10.85916 c 0.273231,0.76677 0.338262,0.88373 -0.305832,1.37015 -0.239867,0.17889 -0.359918,0.43187 -0.256533,0.722 0.214154,0.60098 0.912802,0.39874 0.995696,0.3692 l 5.471028,-1.94955 -5.523712,-15.50124 -5.471027,1.94954 c -0.08289,0.0295 -0.752003,0.31468 -0.537849,0.91567 m 7.369747,-1.99555 c 1.927059,-0.35972 3.345812,0.27912 4.48278,1.76573 0.214387,0.27393 0.391852,0.44424 0.744153,0.3187 0.621707,-0.22154 0.502123,-0.62267 0.4652,-0.72629 l -1.499082,-4.20688 -4.62136,1.64677 0.428309,1.20197 m 5.095402,14.29927 4.766425,-1.69846 -1.476928,-4.14472 c -0.02954,-0.0829 -0.188908,-0.72676 -0.852062,-0.49045 -0.373024,0.13292 -0.379212,0.50881 -0.413507,0.87136 0.03123,1.85727 -0.847475,3.45491 -2.452237,4.26031 l 0.428309,1.20196 m -2.599394,-7.2947 c 0.951621,-0.0822 1.633372,0.58572 2.1005,1.30675 0.229157,0.31538 0.471653,0.60265 0.906848,0.44757 0.64243,-0.22892 0.272966,-0.93805 0.213889,-1.10384 l -1.595082,-4.47629 c -0.05908,-0.16579 -0.221307,-0.94876 -0.863738,-0.71984 -0.435195,0.15508 -0.441383,0.53096 -0.419462,0.92019 0.0941,0.85395 -0.01164,1.80248 -0.800802,2.3406 l 0.457847,1.28486"
         style="font-style:normal;font-variant:normal;font-weight:bold;font-stretch:normal;font-size:22px;line-height:125%;font-family:'Stencil Std';-inkscape-font-specification:'Stencil Std Bold';text-align:start;writing-mode:lr-tb;text-anchor:start"
         id="path3900"
         inkscape:connector-curvature="0" />
      <path
         d="m 96.40933,831.98173 c 1.353297,0.0229 1.560878,1.26135 1.655547,2.09198 l 1.061295,9.31171 c 0.09467,0.83062 0.171096,2.08403 -1.142339,2.41087 l 0.144495,1.26779 c 3.628502,-0.41356 6.976302,-3.87292 6.150402,-8.98225 -0.90506,-5.60959 -4.302939,-7.83513 -8.013895,-7.3679 l 0.144495,1.2678 m -1.128127,-1.15569 -5.595773,0.63777 c -0.437169,0.0498 -0.976158,0.17769 -0.911384,0.74601 0.06228,0.54646 0.485068,0.5647 0.939677,0.66789 0.430258,0.0838 0.453807,0.67897 0.491176,1.00685 l 1.305442,11.45385 c 0.09218,0.80876 0.128984,0.93742 -0.608658,1.26506 -0.274195,0.11982 -0.4485,0.33897 -0.413622,0.64499 0.07225,0.63389 0.623693,0.61533 1.10458,0.56052 l 5.552055,-0.63279 -1.863493,-16.35015"
         style="font-style:normal;font-variant:normal;font-weight:bold;font-stretch:normal;font-size:22px;line-height:125%;font-family:'Stencil Std';-inkscape-font-specification:'Stencil Std Bold';text-align:start;writing-mode:lr-tb;text-anchor:start"
         id="path3902"
         inkscape:connector-curvature="0" />
      <path
         d="m 113.76222,832.52311 c 0.0142,-0.81387 -0.005,-0.94624 0.76866,-1.17474 0.28749,-0.083 0.48892,-0.27749 0.49431,-0.58544 0.0112,-0.6379 -0.71397,-0.69459 -0.80195,-0.69613 l -6.22505,-0.10886 c -0.088,-0.002 -0.81465,0.0298 -0.8258,0.66766 -0.005,0.30796 0.18912,0.50939 0.47354,0.60238 0.76565,0.25542 0.74135,0.38702 0.72711,1.20089 l -0.20156,11.52624 c -0.0142,0.81388 0.005,0.94624 -0.76866,1.17474 -0.28749,0.083 -0.48892,0.27749 -0.49431,0.58545 -0.0112,0.6379 0.71397,0.69459 0.80195,0.69613 l 6.22505,0.10885 c 0.088,0.002 0.81465,-0.0298 0.8258,-0.66766 0.005,-0.30795 -0.18912,-0.50938 -0.47354,-0.60237 -0.76565,-0.25543 -0.74135,-0.38702 -0.72711,-1.2009 l 0.20156,-11.52624"
         style="font-style:normal;font-variant:normal;font-weight:bold;font-stretch:normal;font-size:22px;line-height:125%;font-family:'Stencil Std';-inkscape-font-specification:'Stencil Std Bold';text-align:start;writing-mode:lr-tb;text-anchor:start"
         id="path3904"
         inkscape:connector-curvature="0" />
      <path
         d="m 124.56852,830.70643 c -3.21844,-0.33535 -5.89961,1.38057 -6.35903,4.69286 -0.47453,3.42124 1.90278,5.01699 4.48831,6.55276 0.98251,0.6027 2.51649,1.39294 2.28249,2.75975 -0.20982,1.19248 -1.16976,1.54797 -2.26109,1.72976 l -0.1753,1.26391 c 3.23419,0.38195 6.35055,-1.42908 6.81904,-4.80675 0.27807,-2.0048 -0.30948,-4.17409 -3.96102,-6.19089 -2.45414,-1.36208 -2.95184,-2.09743 -2.80373,-3.1652 0.12392,-0.89345 0.92766,-1.40387 1.79503,-1.5723 l 0.1753,-1.2639 m 5.63871,1.78157 c 0.0242,-0.17433 0.17053,-0.90919 -0.50501,-1.00289 -0.56657,-0.0786 -0.6318,0.71195 -1.19838,0.63337 -0.2397,-0.0332 -1.58487,-1.06383 -2.9547,-1.27604 l -0.17531,1.2639 c 1.64835,0.60621 2.7697,2.44975 2.78575,4.09556 0.005,0.44489 0.14362,0.88613 0.66661,0.95867 0.63195,0.0876 0.79468,-0.44504 0.86419,-0.94624 l 0.51685,-3.72633 m -13.45155,13.39295 c -0.0151,0.10895 -0.12695,0.91523 0.54858,1.00893 0.54479,0.0756 0.57916,-0.65262 1.27648,-0.5559 0.78449,0.10881 1.09274,0.92893 2.98255,1.23547 l 0.1753,-1.2639 c -1.86323,-0.65822 -2.78433,-2.98483 -2.84761,-4.77045 -0.014,-0.37952 -0.27071,-0.7705 -0.70654,-0.83095 -0.61016,-0.0846 -0.78195,0.51344 -0.84542,0.97106 l -0.58334,4.20574"
         style="font-style:normal;font-variant:normal;font-weight:bold;font-stretch:normal;font-size:22px;line-height:125%;font-family:'Stencil Std';-inkscape-font-specification:'Stencil Std Bold';text-align:start;writing-mode:lr-tb;text-anchor:start"
         id="path3906"
         inkscape:connector-curvature="0" />
      <path
         d="m 132.5198,846.54155 c -0.23591,0.77906 -0.25311,0.91177 -1.0602,0.92023 -0.29923,10e-4 -0.54611,0.13345 -0.63538,0.42823 -0.1849,0.61062 0.49719,0.86314 0.58141,0.88864 l 5.95879,1.80442 c 0.0842,0.0255 0.79182,0.1938 0.97672,-0.41682 0.0893,-0.29478 -0.0428,-0.54167 -0.29107,-0.70878 -0.66682,-0.45477 -0.60751,-0.57473 -0.3716,-1.3538 l 4.05515,-13.39148 -5.55872,-1.68327 c -0.0842,-0.0255 -0.79182,-0.1938 -0.97673,0.41682 -0.0893,0.29478 0.0429,0.54166 0.29108,0.70878 0.66682,0.45477 0.6075,0.57473 0.37159,1.35379 l -3.34104,11.03324 m 9.78515,-10.30015 c 0.93802,0.69781 1.01661,1.27329 0.69781,2.32607 l -0.7715,2.54775 c -0.31242,1.03174 -0.67023,1.68195 -1.83912,1.44292 l -0.37618,1.24229 c 1.22509,0.5089 0.88909,1.6944 0.59579,2.66297 l -0.43357,1.43179 c -0.29967,0.98962 -0.47494,1.94796 0.0325,2.92913 0.45507,0.85038 1.20611,1.33066 2.11151,1.60483 0.9054,0.27417 1.71441,0.33526 2.60884,-0.0375 0.57162,-0.21767 1.50237,-0.78633 1.68728,-1.39695 0.0893,-0.29478 -0.15199,-0.71263 -0.42572,-0.79552 -0.50533,-0.15302 -0.75341,0.43846 -1.0903,0.33645 -0.27372,-0.0829 -0.083,-0.48488 -0.0257,-0.67438 l 0.56109,-1.85291 c 0.63374,-2.24466 -0.99022,-3.33408 -2.7813,-4.17527 l 0.0127,-0.0421 c 2.30072,0.14501 4.21976,-0.4232 4.91089,-2.85736 0.46352,-1.60662 0.0983,-2.98148 -1.10202,-4.10351 -1.07844,-0.99318 -2.52299,-1.38464 -3.89162,-1.79908 l -0.10527,-0.0319 -0.37619,1.24229"
         style="font-style:normal;font-variant:normal;font-weight:bold;font-stretch:normal;font-size:22px;line-height:125%;font-family:'Stencil Std';-inkscape-font-specification:'Stencil Std Bold';text-align:start;writing-mode:lr-tb;text-anchor:start"
         id="path3908"
         inkscape:connector-curvature="0" />
      <path
         d="m 159.82187,854.82095 c -0.99345,1.69241 -2.21334,2.36163 -4.2992,2.00776 l -0.5803,1.16106 c 1.28896,0.61964 4.2209,0.60934 6.0012,-2.559 l 3.70803,-7.41896 c 1.54432,-2.30249 2.42018,-0.90554 2.84311,-1.75173 0.30491,-0.61005 -0.5216,-0.97395 -0.73807,-1.08214 l -2.2434,-1.12126 c -0.21647,-0.1082 -1.00363,-0.55081 -1.30854,0.0592 -0.42293,0.8462 1.22011,0.7082 0.30552,3.32544 l -3.68835,7.3796 m -5.20443,1.60452 c -1.25953,-1.17061 -0.30541,-2.63673 -0.20705,-2.83351 l 4.73093,-9.46557 c 0.36392,-0.72812 0.40326,-0.85603 1.20021,-0.72825 0.29517,0.0491 0.5608,-0.0394 0.6985,-0.31495 0.28523,-0.57069 -0.3445,-0.93462 -0.42322,-0.97397 l -5.56914,-2.78348 c -0.0787,-0.0393 -0.74779,-0.32456 -1.03302,0.24613 -0.1377,0.27551 -0.0491,0.54114 0.16737,0.74772 0.58057,0.56071 0.50188,0.66895 0.13796,1.39707 l -4.66208,9.32782 c -0.49178,0.98394 -0.62939,1.84977 0.64993,3.71892 0.9841,1.42646 2.17468,2.04611 3.72931,2.82313 l 0.5803,-1.16106"
         style="font-style:normal;font-variant:normal;font-weight:bold;font-stretch:normal;font-size:22px;line-height:125%;font-family:'Stencil Std';-inkscape-font-specification:'Stencil Std Bold';text-align:start;writing-mode:lr-tb;text-anchor:start"
         id="path3910"
         inkscape:connector-curvature="0" />
      <path
         d="m 176.70561,853.37097 c 0.84034,0.82726 0.47083,1.67359 -0.11061,2.47485 l -1.95107,2.68869 c -0.63312,0.87248 -1.2163,1.56376 -2.40898,0.99729 l -0.74941,1.03274 c 1.69155,1.22749 2.81789,1.77301 4.00363,1.89953 1.88616,0.1727 3.25531,-0.62778 4.34067,-2.12347 1.08536,-1.49569 1.42178,-3.04559 0.67267,-4.7852 -0.48801,-1.08804 -1.35593,-1.98968 -3.04749,-3.21717 l -0.74941,1.03274 m -12.63202,6.54471 c -0.47808,0.65881 -0.5378,0.77857 -1.30313,0.5222 -0.28316,-0.0967 -0.5597,-0.0528 -0.7406,0.1965 -0.37471,0.51637 0.18705,0.97837 0.25827,1.03005 l 5.03906,3.65664 c 0.0712,0.0517 0.68466,0.44246 1.05936,-0.0739 0.1809,-0.24928 0.13693,-0.52582 -0.0429,-0.76502 -0.48107,-0.64809 -0.38574,-0.74201 0.0923,-1.40083 l 8.21774,-11.32452 -4.70075,-3.41114 c -0.0712,-0.0517 -0.68466,-0.44246 -1.05936,0.0739 -0.1809,0.24928 -0.13693,0.52582 0.0429,0.76502 0.48107,0.6481 0.38574,0.74201 -0.0923,1.40083 l -6.77059,9.33027"
         style="font-style:normal;font-variant:normal;font-weight:bold;font-stretch:normal;font-size:22px;line-height:125%;font-family:'Stencil Std';-inkscape-font-specification:'Stencil Std Bold';text-align:start;writing-mode:lr-tb;text-anchor:start"
         id="path3912"
         inkscape:connector-curvature="0" />
      <path
         d="m 178.80649,871.58334 c -0.57239,0.57876 -0.64957,0.68808 -1.36722,0.31869 -0.26522,-0.13855 -0.54523,-0.137 -0.76182,0.082 -0.44863,0.45362 0.0366,0.99542 0.0992,1.0573 l 4.42671,4.37806 c 0.0626,0.0619 0.60969,0.54111 1.05833,0.0875 0.21658,-0.21899 0.21503,-0.499 0.0736,-0.76268 -0.3773,-0.71352 -0.26884,-0.7919 0.30356,-1.37066 l 9.83903,-9.94834 -3.83231,-3.79019 -9.83903,9.94834 m 16.62768,-3.23429 -2.25245,-2.2277 -0.89727,0.90724 c 0.24099,1.3832 -0.56106,2.63216 -1.2402,3.60042 -0.29341,0.39053 -0.61743,0.87458 -0.17945,1.30774 0.46926,0.46411 0.90294,0.11947 0.96482,0.0569 l 3.60455,-3.6446 m -13.34954,-5.99332 c -0.0619,0.0626 -0.40171,0.50003 0.0675,0.96414 0.43798,0.43316 0.91841,0.10382 1.30568,-0.19389 0.9607,-0.6898 2.20072,-1.50559 3.5865,-1.2799 l 0.89727,-0.90724 -2.25245,-2.22771 -3.60455,3.6446"
         style="font-style:normal;font-variant:normal;font-weight:bold;font-stretch:normal;font-size:22px;line-height:125%;font-family:'Stencil Std';-inkscape-font-specification:'Stencil Std Bold';text-align:start;writing-mode:lr-tb;text-anchor:start"
         id="path3914"
         inkscape:connector-curvature="0" />
      <path
         d="m 199.5215,877.494 c 0.63843,-0.50498 0.72832,-0.60412 1.3958,-0.15033 0.24645,0.16972 0.52457,0.20218 0.76614,0.0111 0.50039,-0.3958 0.0845,-0.9925 0.0299,-1.06152 l -3.8624,-4.88313 c -0.0546,-0.069 -0.53949,-0.61113 -1.03988,-0.21534 -0.24157,0.19107 -0.27403,0.4692 -0.16562,0.7481 0.28788,0.75405 0.1707,0.81869 -0.46773,1.32366 l -9.04155,7.15159 c -0.63843,0.50498 -0.72831,0.60412 -1.3958,0.15033 -0.24644,-0.16972 -0.52457,-0.20218 -0.76614,-0.0111 -0.50039,0.39579 -0.0845,0.9925 -0.0299,1.06152 l 3.8624,4.88313 c 0.0546,0.069 0.53949,0.61113 1.03988,0.21534 0.24157,-0.19108 0.27403,-0.4692 0.16563,-0.74811 -0.28788,-0.75405 -0.17071,-0.81868 0.46772,-1.32366 l 9.04155,-7.15158"
         style="font-style:normal;font-variant:normal;font-weight:bold;font-stretch:normal;font-size:22px;line-height:125%;font-family:'Stencil Std';-inkscape-font-specification:'Stencil Std Bold';text-align:start;writing-mode:lr-tb;text-anchor:start"
         id="path3916"
         inkscape:connector-curvature="0" />
      <path
         d="m 198.89109,894.24415 6.73717,-7.29499 c 0.19119,-0.19365 0.26227,-0.28843 0.48777,-0.42571 0.77046,-0.46902 0.95435,0.55229 1.68723,0.10615 0.67651,-0.41183 0.0147,-1.2452 -0.24846,-1.67741 l -2.50527,-4.11543 c -0.26311,-0.43221 -0.72479,-1.23291 -1.34492,-0.8554 -0.26308,0.16015 -0.34069,0.41344 -0.31617,0.70758 0.0834,0.64466 -0.007,0.6226 -0.46078,1.10469 l -9.88677,10.96371 1.6473,2.70604 4.2029,-1.21923 m 1.65698,-0.49357 0.0229,0.0376 6.8052,-1.9792 c 0.50086,-0.15036 1.02459,-0.26314 1.56793,-0.25908 0.63404,0.0261 0.83096,0.13805 1.35389,0.48937 0.34481,0.22794 0.56134,0.45671 0.97476,0.20504 0.60134,-0.36607 0.10291,-1.01561 -0.14877,-1.42903 l -1.25835,-2.06711 c -0.24023,-0.39463 -0.65206,-1.07114 -1.23461,-0.71651 -0.37584,0.22879 -0.32843,0.56052 -0.24671,0.94861 0.1283,0.59155 -0.0539,1.01153 -0.58006,1.33184 -0.31946,0.19447 -0.45509,0.22552 -0.81296,0.3146 l -4.82795,1.41943 -1.61525,1.70446"
         style="font-style:normal;font-variant:normal;font-weight:bold;font-stretch:normal;font-size:22px;line-height:125%;font-family:'Stencil Std';-inkscape-font-specification:'Stencil Std Bold';text-align:start;writing-mode:lr-tb;text-anchor:start"
         id="path3918"
         inkscape:connector-curvature="0" />
      <path
         d="m 212.4549,894.86659 c -0.28351,0.12037 -0.38838,0.38 -0.35762,0.67765 0.0782,0.80334 -0.0519,0.83467 -0.8012,1.15278 l -10.61125,4.50514 c -0.74927,0.31811 -0.86217,0.38995 -1.38584,-0.22424 -0.19277,-0.22887 -0.45241,-0.33375 -0.73591,-0.21338 -0.58726,0.24933 -0.34405,0.93479 -0.30966,1.01579 l 2.26977,5.34613 15.14735,-6.431 -2.26977,-5.34613 c -0.0344,-0.081 -0.35861,-0.73207 -0.94587,-0.48274 m 2.428,7.2388 c 0.47308,1.9024 -0.0807,3.35646 -1.49746,4.57938 -0.26077,0.23021 -0.42029,0.41744 -0.27413,0.7617 0.25793,0.60751 0.65129,0.46441 0.75254,0.42142 l 4.11084,-1.74531 -1.91726,-4.51585 -1.17453,0.49866 m -13.97282,5.93234 1.97745,4.6576 4.05009,-1.71951 c 0.081,-0.0344 0.71431,-0.23157 0.43919,-0.87959 -0.15476,-0.3645 -0.53035,-0.34845 -0.89429,-0.36123 -1.85217,0.14104 -3.499,-0.64162 -4.39791,-2.19593 l -1.17453,0.49866 m 7.12817,-3.02636 c 0.13834,0.9451 -0.48808,1.66516 -1.18021,2.17413 -0.30127,0.24741 -0.5737,0.50647 -0.39315,0.93173 0.26653,0.62776 0.95256,0.217 1.11456,0.14822 l 4.3741,-1.85708 c 0.16201,-0.0688 0.93401,-0.27704 0.66749,-0.90481 -0.18055,-0.42526 -0.55615,-0.4092 -0.94339,-0.36429 -0.8469,0.14445 -1.80002,0.095 -2.38388,-0.66095 l -1.25552,0.53305"
         style="font-style:normal;font-variant:normal;font-weight:bold;font-stretch:normal;font-size:22px;line-height:125%;font-family:'Stencil Std';-inkscape-font-specification:'Stencil Std Bold';text-align:start;writing-mode:lr-tb;text-anchor:start"
         id="path3920"
         inkscape:connector-curvature="0" />
    </g>
    <g
       transform="matrix(-0.6501391,0,0,0.55372765,40.519678,374.42519)"
       style="font-style:normal;font-variant:normal;font-weight:normal;font-stretch:normal;font-size:137.00894165px;line-height:125%;font-family:'Designer Block';-inkscape-font-specification:'Designer Block';text-align:start;letter-spacing:0px;word-spacing:0px;writing-mode:lr-tb;text-anchor:start;fill:#000000;fill-opacity:1;stroke:none"
       id="text3922">
      <path
         d="m -65.904241,1072.5945 c -5.617361,0 -9.453617,-3.8363 -9.453617,-9.4536 v -66.72339 h -13.563885 v 66.72339 c 0,5.6173 -3.562238,9.4536 -9.179599,9.4536 -5.617358,0 -9.179598,-3.8363 -9.179598,-9.4536 v -66.72339 h -13.56389 v 66.72339 c 0,5.6173 -3.83625,9.4536 -9.45361,9.4536 -5.48036,0 -9.1796,-3.8363 -9.1796,-9.4536 v -64.53125 c 0,-5.75437 2.05514,-10.6867 6.02839,-14.79696 3.97326,-4.11027 8.90559,-6.1654 14.79697,-6.1654 h 41.102679 c 5.891379,0 10.82371,2.05513 14.796966,6.1654 3.973255,4.11026 6.028393,9.04259 6.028393,14.79696 v 64.53125 c 0,5.4803 -3.699247,9.4536 -9.179599,9.4536"
         id="path3947"
         inkscape:connector-curvature="0" />
    </g>
  </g>
</svg>
